<svg viewBox="0 0 64 64" xmlns="http://www.w3.org/2000/svg">
  <defs>
    <linearGradient id="bellGradient" x1="0%" y1="0%" x2="100%" y2="100%">
      <stop offset="0%" style="stop-color:#9c6bec;stop-opacity:1" />
      <stop offset="100%" style="stop-color:#7c4dc9;stop-opacity:1" />
    </linearGradient>
  </defs>
  
  <!-- 背景圆角正方形 -->
  <rect x="8" y="8" width="48" height="48" rx="12" fill="url(#bellGradient)" />
  
  <!-- 铃铛主体 (现代简约设计) -->
  <path d="M 32 16 C 38.5 16, 44 19, 44 26 L 44 36 C 44 40.5, 46.5 43, 50 43 C 50 43, 50 47, 46 47 L 18 47 C 14 47, 14 43, 14 43 C 17.5 43, 20 40.5, 20 36 L 20 26 C 20 19, 25.5 16, 32 16 Z" 
        fill="white" 
        stroke="none" />
  
  <!-- 铃铛顶部悬挂环 (圆角设计) -->
  <rect x="28" y="16" width="8" height="4" rx="2" fill="white" />
  
  <!-- 铃铛底部装饰点 -->
  <circle cx="32" cy="41" r="2" fill="url(#bellGradient)" />
</svg>
